<?xml version="1.0" encoding="utf-8"?>
<!-- Generator: Adobe Illustrator 23.0.0, SVG Export Plug-In . SVG Version: 6.00 Build 0)  -->
<svg version="1.1" id="Calque_1" xmlns="http://www.w3.org/2000/svg" xmlns:xlink="http://www.w3.org/1999/xlink" x="0px" y="0px"
	 viewBox="0 0 70 70" style="enable-background:new 0 0 70 70;" xml:space="preserve">
<style type="text/css">
	.st0{fill:#FFFFFF;}
	.st1{fill:#313130;}
	.st2{fill:#0F2285;}
	.st3{fill:#FCFE0D;}
	.st4{fill:#E94112;}
	.st5{fill:#0E2382;}
	.st6{fill:#F1F923;}
	.st7{fill:none;}
	.st8{fill:#4A8B2C;}
	.st9{fill:#FC0019;}
	.st10{fill:#FFE618;}
	.st11{fill:#0F218B;}
	.st12{fill:#FFE618;stroke:#0F218B;}
	.st13{fill:#80C41C;}
	.st14{fill:#E0D1BE;}
</style>
<g>
	<path class="st1" d="M35,12c-12.7,0-23,10.3-23,23c0,12.7,10.3,23,23,23s23-10.3,23-23C58,22.3,47.7,12,35,12z M35,56
		c-11.58,0-21-9.42-21-21c0-11.58,9.42-21,21-21s21,9.42,21,21C56,46.58,46.58,56,35,56z"/>
	<path class="st1" d="M47.96,22.04c-0.39-0.39-1.02-0.39-1.41,0L35,33.59L23.46,22.04c-0.39-0.39-1.02-0.39-1.41,0
		s-0.39,1.02,0,1.41L33.59,35L22.04,46.54c-0.39,0.39-0.39,1.02,0,1.41c0.2,0.2,0.45,0.29,0.71,0.29s0.51-0.1,0.71-0.29L35,36.41
		l11.54,11.54c0.2,0.2,0.45,0.29,0.71,0.29s0.51-0.1,0.71-0.29c0.39-0.39,0.39-1.02,0-1.41L36.41,35l11.54-11.54
		C48.35,23.07,48.35,22.43,47.96,22.04z"/>
</g>
</svg>
