<?xml version="1.0" encoding="utf-8"?>
<!-- Generator: Adobe Illustrator 23.0.0, SVG Export Plug-In . SVG Version: 6.00 Build 0)  -->
<svg version="1.1" id="Calque_1" xmlns="http://www.w3.org/2000/svg" xmlns:xlink="http://www.w3.org/1999/xlink" x="0px" y="0px"
	 viewBox="0 0 30 30" style="enable-background:new 0 0 30 30;" xml:space="preserve">
<style type="text/css">
	.st0{fill:#FFFFFF;}
	.st1{fill:#313130;}
	.st2{fill:#0F2285;}
	.st3{fill:#FCFE0D;}
	.st4{fill:#E94112;}
	.st5{fill:#0E2382;}
	.st6{fill:#F1F923;}
	.st7{fill:none;}
	.st8{fill:#4A8B2C;}
	.st9{fill:#FC0019;}
	.st10{fill:#FFE618;}
	.st11{fill:#0F218B;}
	.st12{fill:#FFE618;stroke:#0F218B;}
	.st13{fill:#80C41C;}
	.st14{fill:#E0D1BE;}
</style>
<g>
	<path class="st1" d="M23.78,4H6.22C4.99,4,4,4.99,4,6.22v17.56C4,25.01,4.99,26,6.22,26h6.57v-8.36h-1.67v-2.92h1.67v-0.49
		c0-1.54,0.47-3.23,1.61-4.27c0.99-0.94,2.37-1.28,3.51-1.28c0.89,0,1.56,0.1,2.11,0.26l-0.16,3.05c-0.34-0.1-0.75-0.18-1.28-0.18
		c-1.3,0-1.85,1.02-1.85,2.26v0.65h2.55v2.92h-2.53V26h7.01c1.22,0,2.22-0.99,2.22-2.22V6.22C26,4.99,25.01,4,23.78,4z"/>
</g>
</svg>
