<?xml version="1.0" encoding="utf-8"?>
<!-- Generator: Adobe Illustrator 23.0.0, SVG Export Plug-In . SVG Version: 6.00 Build 0)  -->
<svg version="1.1" id="Calque_1" xmlns="http://www.w3.org/2000/svg" xmlns:xlink="http://www.w3.org/1999/xlink" x="0px" y="0px"
	 viewBox="0 0 30 30" style="enable-background:new 0 0 30 30;" xml:space="preserve">
<style type="text/css">
	.st0{fill:#FFFFFF;}
	.st1{fill:#313130;}
	.st2{fill:#0F2285;}
	.st3{fill:#FCFE0D;}
	.st4{fill:#E94112;}
	.st5{fill:#0E2382;}
	.st6{fill:#F1F923;}
	.st7{fill:none;}
	.st8{fill:#4A8B2C;}
	.st9{fill:#FC0019;}
	.st10{fill:#FFE618;}
	.st11{fill:#0F218B;}
	.st12{fill:#FFE618;stroke:#0F218B;}
	.st13{fill:#80C41C;}
	.st14{fill:#E0D1BE;}
</style>
<g>
	<path class="st1" d="M23.79,4H6.21C4.99,4,4,4.99,4,6.21v17.57C4,25.01,4.99,26,6.21,26h17.57c1.22,0,2.21-0.99,2.21-2.21V6.21
		C26,4.99,25.01,4,23.79,4z M15.97,18.37c-0.91-0.07-1.3-0.52-2.01-0.95c-0.39,2.06-0.87,4.04-2.29,5.06
		c-0.44-3.11,0.65-5.45,1.15-7.94c-0.86-1.45,0.1-4.35,1.91-3.63c2.22,0.88-1.93,5.37,0.86,5.93c2.91,0.59,4.1-5.05,2.29-6.89
		c-2.61-2.65-7.6-0.06-6.99,3.73c0.15,0.92,1.11,1.2,0.39,2.48c-1.68-0.37-2.17-1.68-2.11-3.44c0.11-2.87,2.58-4.88,5.07-5.16
		c3.15-0.35,6.09,1.15,6.51,4.11C21.22,15.01,19.34,18.64,15.97,18.37z"/>
</g>
</svg>
